Coordinates
version=1
nRows=6
nColumns=63
inDegrees=yes

Units are S.I. units (second, meters, Newtons, ...)
If the header above contains a line with 'inDegrees', this indicates whether rotational values are in degrees (yes) or radians (no).

endheader
time	pelvis_tilt	pelvis_list	pelvis_rotation	pelvis_tx	pelvis_ty	pelvis_tz	hip_flexion_r	hip_adduction_r	hip_rotation_r	knee_angle_r	knee_angle_r_beta	ankle_angle_r	subtalar_angle_r	mtp_angle_r	hip_flexion_l	hip_adduction_l	hip_rotation_l	knee_angle_l	knee_angle_l_beta	ankle_angle_l	subtalar_angle_l	mtp_angle_l	L5_S1_Flex_Ext	L5_S1_Lat_Bending	L5_S1_axial_rotation	L4_L5_Flex_Ext	L4_L5_Lat_Bending	L4_L5_axial_rotation	L3_L4_Flex_Ext	L3_L4_Lat_Bending	L3_L4_axial_rotation	L2_L3_Flex_Ext	L2_L3_Lat_Bending	L2_L3_axial_rotation	L1_L2_Flex_Ext	L1_L2_Lat_Bending	L1_L2_axial_rotation	L1_T12_Flex_Ext	L1_T12_Lat_Bending	L1_T12_axial_rotation	Abs_r3	Abs_r2	Abs_r1	Abs_t1	Abs_t2	neck_flexion	neck_bending	neck_rotation	arm_flex_r	arm_add_r	arm_rot_r	elbow_flex_r	pro_sup_r	wrist_flex_r	wrist_dev_r	arm_flex_l	arm_add_l	arm_rot_l	elbow_flex_l	pro_sup_l	wrist_flex_l	wrist_dev_l
0.650000	-2.540523	-1.050434	93.537691	0.158370	0.887696	0.737840	-0.304340	-3.209430	-18.805349	12.344805	0.215457	24.264685	18.852069	0.000000	2.896037	1.699249	5.550228	14.129583	0.246608	24.717203	-8.244307	0.000000	-0.153051	0.361217	-0.219587	-0.284232	0.480418	-0.233312	-0.251448	0.878262	-0.233312	-0.174922	0.878262	-0.192139	-0.142124	0.736593	-0.178415	-0.087454	0.559524	-0.164691	-1.093231	4.086154	-1.221280	0.000000	0.000000	24.393666	-0.758744	15.123857	13.704841	-20.227957	483.126846	10.834913	-0.099781	-2.606038	-4.654227	6.322558	-14.800016	85.138208	19.691707	63.578898	4.316687	16.985076
0.666667	-2.411487	-0.991982	93.549176	0.158131	0.887072	0.737429	-0.255719	-3.157456	-19.021930	12.695264	0.221574	24.348256	18.869201	0.000000	2.840796	1.553885	5.525722	14.221422	0.248211	24.902915	-8.204595	0.000000	-0.178526	0.385298	-0.245980	-0.331540	0.512447	-0.261353	-0.293300	0.936815	-0.261353	-0.204037	0.936815	-0.215232	-0.165779	0.785701	-0.199859	-0.102010	0.596827	-0.184485	-1.275191	4.358574	-1.368066	0.000000	0.000000	24.239254	-0.802475	15.820502	12.905209	-20.839815	477.868612	11.159810	1.448231	-2.956645	-4.756249	6.263904	-14.343774	99.013289	16.490636	55.296002	5.258314	15.408437
0.683333	-2.321412	-0.973856	93.653726	0.158089	0.886208	0.737295	-0.137675	-3.140737	-19.321597	13.099608	0.228631	24.575136	18.879693	0.000000	2.881018	1.418418	5.365321	14.386008	0.251083	25.214073	-7.862100	0.000000	-0.202655	0.394242	-0.298540	-0.376351	0.524342	-0.317199	-0.332942	0.958559	-0.317199	-0.231614	0.958559	-0.261223	-0.188185	0.803938	-0.242564	-0.115797	0.610680	-0.223905	-1.447545	4.459741	-1.660392	0.000000	0.000000	24.096360	-0.645782	16.351439	12.295438	-21.288553	470.963219	11.695099	5.333165	-3.556434	-4.636083	6.221408	-13.884732	112.140292	13.347758	46.696968	5.606688	13.417311
0.700000	-2.292621	-1.011964	93.869309	0.158326	0.885200	0.737422	0.047449	-3.174403	-19.713588	13.522664	0.236015	24.919005	18.889393	0.000000	3.023268	1.328178	5.180915	14.601114	0.254838	25.590815	-7.346586	0.000000	-0.223817	0.382948	-0.378720	-0.415650	0.509321	-0.402390	-0.367709	0.931100	-0.402390	-0.255800	0.931100	-0.331380	-0.207836	0.780908	-0.307710	-0.127889	0.593186	-0.284040	-1.598702	4.331984	-2.106325	0.000000	0.000000	23.987554	-0.251379	16.648878	12.100799	-21.088928	469.116236	11.445098	5.266351	-3.976188	-5.231428	6.104976	-13.466968	123.955580	10.366667	38.027369	5.527560	11.063569
0.716667	-2.310313	-1.107032	94.166259	0.158804	0.884078	0.737769	0.297776	-3.242579	-20.163945	13.947173	0.243424	25.367079	18.897494	0.000000	3.261548	1.259899	4.869459	14.861094	0.259375	26.041099	-6.554839	0.000000	-0.241907	0.355832	-0.475965	-0.449245	0.473256	-0.505712	-0.397429	0.865169	-0.505712	-0.276475	0.865169	-0.416469	-0.224635	0.725612	-0.386721	-0.138226	0.551183	-0.356973	-1.727916	4.025240	-2.647172	0.000000	0.000000	23.928520	0.290705	16.682372	12.195929	-20.540597	467.966913	11.094676	5.033373	-4.455369	-5.889046	5.871022	-13.101749	133.923115	7.680179	29.563647	5.042344	8.421032
0.733333	-2.395252	-1.262909	94.516216	0.159562	0.882874	0.738301	0.609624	-3.361851	-20.623334	14.351143	0.250475	25.901555	18.903033	0.000000	3.581891	1.240744	4.458726	15.136688	0.264185	26.516123	-5.578702	0.000000	-0.257118	0.309994	-0.582316	-0.477494	0.412293	-0.618711	-0.422419	0.753721	-0.618711	-0.293860	0.753721	-0.509527	-0.238760	0.632141	-0.473132	-0.146917	0.480181	-0.436737	-1.836568	3.506720	-3.238669	0.000000	0.000000	23.933245	0.929845	16.333212	12.553341	-19.705565	466.896316	10.665952	4.778058	-4.834261	-6.600528	5.436811	-12.821839	141.601368	5.399851	21.635782	4.143812	5.599311
